<?xml version="1.0" standalone="no"?>
<!DOCTYPE svg PUBLIC "-//W3C//DTD SVG 20010904//EN"
 "http://www.w3.org/TR/2001/REC-SVG-20010904/DTD/svg10.dtd">
<svg version="1.0" xmlns="http://www.w3.org/2000/svg"
 width="254.000000pt" height="198.000000pt" viewBox="0 0 254.000000 198.000000"
 preserveAspectRatio="xMidYMid meet">

<g transform="translate(0.000000,198.000000) scale(0.100000,-0.100000)"
fill="#000000" stroke="none">
<path d="M190 1971 c-72 -22 -128 -69 -164 -136 -21 -40 -21 -40 -21 -845 0
-766 1 -807 19 -840 26 -49 74 -98 121 -123 l40 -22 1085 0 1085 0 40 22 c47
25 95 74 121 123 18 33 19 74 19 840 0 805 0 805 -21 845 -28 51 -68 91 -119
119 l-40 21 -1070 2 c-588 1 -1081 -2 -1095 -6z m430 -221 l0 -110 -250 0
-250 0 0 58 c0 67 21 113 65 142 27 18 48 20 233 20 l202 0 0 -110z m610 0 l0
-110 -245 0 -245 0 0 110 0 110 245 0 245 0 0 -110z m590 0 l0 -110 -235 0
-235 0 0 110 0 110 235 0 235 0 0 -110z m535 90 c43 -27 65 -75 65 -144 l0
-56 -240 0 -240 0 0 110 0 110 191 0 c175 0 195 -2 224 -20z m65 -850 l0 -530
-1150 0 -1150 0 0 530 0 530 1150 0 1150 0 0 -530z m-1800 -761 l0 -110 -207
3 c-189 3 -210 5 -235 23 -39 28 -58 74 -58 139 l0 56 250 0 250 0 0 -111z
m610 1 l0 -110 -245 0 -245 0 0 110 0 110 245 0 245 0 0 -110z m590 0 l0 -110
-235 0 -235 0 0 110 0 110 235 0 235 0 0 -110z m598 40 c-3 -56 -8 -74 -28
-95 -48 -51 -65 -55 -265 -55 l-185 0 0 110 0 110 241 0 241 0 -4 -70z"/>
<path d="M1060 1321 c-6 -13 -10 -138 -10 -340 l0 -321 25 -16 c21 -14 31 -15
51 -5 30 13 409 275 442 304 24 23 29 55 10 79 -7 9 -111 84 -230 167 -227
158 -264 175 -288 132z"/>
</g>
</svg>
