<?xml version="1.0" standalone="no"?>
<!DOCTYPE svg PUBLIC "-//W3C//DTD SVG 20010904//EN"
 "http://www.w3.org/TR/2001/REC-SVG-20010904/DTD/svg10.dtd">
<svg version="1.0" xmlns="http://www.w3.org/2000/svg"
 width="225.000000pt" height="225.000000pt" viewBox="0 0 225.000000 225.000000"
 preserveAspectRatio="xMidYMid meet">

<g transform="translate(0.000000,225.000000) scale(0.100000,-0.100000)"
fill="#000000" stroke="none">
<path d="M571 1617 l-571 -502 30 -27 c37 -34 84 -37 138 -9 20 11 248 198
505 416 l468 396 22 -18 c13 -10 208 -184 434 -387 227 -202 425 -377 442
-387 74 -45 155 -45 195 0 16 18 -8 41 -501 488 -285 258 -534 484 -554 501
l-37 32 -571 -503z"/>
<path d="M1760 1760 l0 -129 105 -91 c58 -49 108 -90 110 -90 3 0 5 99 5 220
l0 220 -110 0 -110 0 0 -130z"/>
<path d="M718 1397 l-407 -342 -1 -450 c0 -338 3 -454 12 -463 9 -9 90 -12
305 -12 l293 0 0 250 c0 315 -17 290 189 290 132 0 152 -2 172 -19 l24 -19 0
-251 0 -251 288 0 c274 0 288 1 307 20 19 19 20 33 20 459 l0 439 -386 343
c-212 189 -391 345 -397 346 -7 1 -195 -152 -419 -340z"/>
</g>
</svg>
