<?xml version="1.0" standalone="no"?>
<!DOCTYPE svg PUBLIC "-//W3C//DTD SVG 20010904//EN"
 "http://www.w3.org/TR/2001/REC-SVG-20010904/DTD/svg10.dtd">
<svg version="1.0" xmlns="http://www.w3.org/2000/svg"
 width="900.000000pt" height="520.000000pt" viewBox="0 0 900.000000 520.000000"
 preserveAspectRatio="xMidYMid meet">

<g transform="translate(0.000000,520.000000) scale(0.100000,-0.100000)"
fill="#000000" stroke="none">
<path d="M2902 4029 c-120 -23 -231 -112 -286 -228 l-31 -66 0 -1090 0 -1090
31 -66 c56 -118 168 -205 293 -229 74 -14 3108 -14 3182 0 125 24 237 111 293
229 l31 66 0 1090 0 1090 -31 66 c-56 117 -168 206 -288 228 -72 13 -3127 13
-3194 0z m2968 -293 c0 -4 -739 -593 -1152 -918 -162 -128 -198 -146 -254
-128 -19 7 -102 64 -182 128 -413 325 -1152 914 -1152 918 0 2 617 4 1370 4
754 0 1370 -2 1370 -4z m-2862 -289 c868 -693 1254 -994 1307 -1018 115 -54
255 -54 370 0 53 24 428 317 1307 1018 64 51 119 93 122 93 4 0 6 -430 6 -955
0 -1038 2 -997 -55 -1023 -38 -17 -3092 -17 -3130 0 -57 26 -55 -15 -55 1023
0 525 2 955 6 955 3 0 58 -42 122 -93z"/>
</g>
</svg>
