<?xml version="1.0" standalone="no"?>
<!DOCTYPE svg PUBLIC "-//W3C//DTD SVG 20010904//EN"
 "http://www.w3.org/TR/2001/REC-SVG-20010904/DTD/svg10.dtd">
<svg version="1.0" xmlns="http://www.w3.org/2000/svg"
 width="230.000000pt" height="219.000000pt" viewBox="0 0 230.000000 219.000000"
 preserveAspectRatio="xMidYMid meet">

<g transform="translate(0.000000,219.000000) scale(0.100000,-0.100000)"
fill="#000000" stroke="none">
<path d="M1011 2180 c-481 -61 -870 -412 -983 -889 -18 -75 -21 -130 -25 -416
-5 -327 -5 -330 17 -358 27 -34 63 -35 95 -2 l25 24 0 289 c0 217 4 310 15
369 114 599 690 969 1266 812 306 -83 580 -343 684 -650 48 -139 55 -209 55
-526 l0 -294 25 -24 c32 -33 68 -32 95 2 22 28 22 31 17 343 -3 241 -8 332
-21 385 -110 478 -451 824 -906 920 -91 19 -266 26 -359 15z"/>
<path d="M385 1146 c-60 -28 -97 -66 -124 -126 -20 -43 -21 -64 -21 -433 0
-418 0 -419 54 -490 14 -19 50 -47 78 -63 48 -26 62 -29 143 -29 73 1 98 5
131 22 54 29 117 101 132 151 8 27 12 156 12 418 0 345 -2 383 -19 419 -48
106 -128 155 -256 155 -63 0 -90 -5 -130 -24z"/>
<path d="M1655 1146 c-60 -28 -97 -66 -124 -126 -20 -43 -21 -64 -21 -435 0
-356 2 -393 19 -430 24 -53 75 -103 131 -129 59 -27 175 -29 242 -3 58 22 129
98 146 155 8 27 12 154 12 418 0 378 0 379 -24 429 -47 100 -125 144 -251 145
-64 0 -90 -5 -130 -24z"/>
</g>
</svg>
